<?xml version="1.0" standalone="no"?><!DOCTYPE svg PUBLIC "-//W3C//DTD SVG 1.1//EN" "http://www.w3.org/Graphics/SVG/1.1/DTD/svg11.dtd"><svg t="1596265494840" class="icon" viewBox="0 0 1024 1024" version="1.1" xmlns="http://www.w3.org/2000/svg" p-id="1651" xmlns:xlink="http://www.w3.org/1999/xlink" width="128" height="128"><defs><style type="text/css"></style></defs><path d="M320 426.666667h42.666667a42.666667 42.666667 0 0 0 0-85.333334h-42.666667a42.666667 42.666667 0 0 0 0 85.333334z m170.666667 256h-170.666667a42.666667 42.666667 0 0 0 0 85.333333h170.666667a42.666667 42.666667 0 0 0 0-85.333333z m0-170.666667h-170.666667a42.666667 42.666667 0 0 0 0 85.333333h170.666667a42.666667 42.666667 0 0 0 0-85.333333z m295.253333-111.786667a42.666667 42.666667 0 0 0-8.96-46.506666l-256-256a45.653333 45.653333 0 0 0-11.946667-8.106667 13.653333 13.653333 0 0 0-3.84 0l-11.946666-4.266667H234.666667a128 128 0 0 0-128 128v597.333334a128 128 0 0 0 128 128h256a42.666667 42.666667 0 0 0 0-85.333334h-256a42.666667 42.666667 0 0 1-42.666667-42.666666V213.333333a42.666667 42.666667 0 0 1 42.666667-42.666666h213.333333v128a128 128 0 0 0 128 128h170.666667a42.666667 42.666667 0 0 0 39.253333-26.453334zM576 341.333333a42.666667 42.666667 0 0 1-42.666667-42.666666V230.826667L643.84 341.333333z m298.666667 170.666667h-213.333334a42.666667 42.666667 0 0 0-42.666666 42.666667v341.333333a42.666667 42.666667 0 0 0 22.613333 37.546667 42.666667 42.666667 0 0 0 42.666667-2.133334l84.053333-55.466666 85.333333 55.466666a42.666667 42.666667 0 0 0 64-35.413333v-341.333333a42.666667 42.666667 0 0 0-42.666666-42.666667z m-42.666667 303.786667l-40.106667-26.88a42.666667 42.666667 0 0 0-47.786666 0l-40.106667 26.88V597.333333h128z" p-id="1652"></path></svg>